<svg width="203" height="56" viewBox="0 0 203 56" fill="none" xmlns="http://www.w3.org/2000/svg">
<path d="M33.96 43H23.688L22.888 35.288C22.76 33.9227 22.4933 32.8133 22.088 31.96C21.6827 31.0853 21.064 30.4453 20.232 30.04C19.4 29.6133 18.2907 29.4 16.904 29.4L7.65601 29.368V21.72L17.288 21.688C19.3787 21.688 20.8827 21.2293 21.8 20.312C22.7173 19.3947 23.176 18.0187 23.176 16.184V15.544C23.176 13.7307 22.7173 12.376 21.8 11.48C20.904 10.5627 19.3893 10.104 17.256 10.104H7.59201V2.104H18.696C23.7093 2.104 27.368 3.07466 29.672 5.016C31.9973 6.95733 33.16 9.752 33.16 13.4V14.232C33.16 16.984 32.456 19.128 31.048 20.664C29.64 22.2 27.496 23.0747 24.616 23.288V24.696L22.568 23.32C25.0427 23.4907 26.9627 24.0027 28.328 24.856C29.6933 25.7093 30.696 26.904 31.336 28.44C31.9973 29.9547 32.4773 31.8427 32.776 34.104L33.96 43ZM10.504 43H0.712006V2.104H10.44V24.472L10.504 28.184V43Z" fill="black"/>
<path d="M53.8175 43.8C48.1002 43.8 43.8762 42.5307 41.1455 39.992C38.4148 37.432 37.0495 33.7093 37.0495 28.824V25.56C37.0495 20.7387 38.3295 17.048 40.8895 14.488C43.4495 11.9067 47.1722 10.616 52.0575 10.616C55.3428 10.616 58.0735 11.1813 60.2495 12.312C62.4468 13.4213 64.0895 15.0107 65.1775 17.08C66.2868 19.1493 66.8415 21.6347 66.8415 24.536V25.592C66.8415 26.4027 66.7988 27.2347 66.7135 28.088C66.6495 28.92 66.5535 29.6987 66.4255 30.424H57.5935C57.6788 29.1867 57.7322 28.024 57.7535 26.936C57.7748 25.8267 57.7855 24.824 57.7855 23.928C57.7855 22.6267 57.5828 21.5387 57.1775 20.664C56.7722 19.768 56.1428 19.0853 55.2895 18.616C54.4575 18.1467 53.3802 17.912 52.0575 17.912C50.0948 17.912 48.6548 18.4453 47.7375 19.512C46.8415 20.5573 46.3935 22.0507 46.3935 23.992V26.872L46.4575 27.928V30.168C46.4575 30.9787 46.5855 31.7467 46.8415 32.472C47.1188 33.1973 47.5882 33.8373 48.2495 34.392C48.9322 34.9253 49.8602 35.352 51.0335 35.672C52.2282 35.9707 53.7428 36.12 55.5775 36.12C57.5188 36.12 59.3855 35.9387 61.1775 35.576C62.9695 35.192 64.6868 34.68 66.3295 34.04L65.5295 41.4C64.0788 42.1467 62.3615 42.7333 60.3775 43.16C58.3935 43.5867 56.2068 43.8 53.8175 43.8ZM64.4415 30.424H42.2335V24.376H64.4415V30.424Z" fill="black"/>
<path d="M99.5995 43H89.9675L90.2555 35.128L90.0315 34.648V24.824L89.9675 23.544C89.9675 21.7947 89.4555 20.504 88.4315 19.672C87.4075 18.84 85.6902 18.424 83.2795 18.424C81.1675 18.424 79.1622 18.6907 77.2635 19.224C75.3648 19.7573 73.5728 20.3653 71.8875 21.048L72.7195 13.464C73.7222 12.9947 74.8422 12.5573 76.0795 12.152C77.3382 11.7253 78.7248 11.384 80.2395 11.128C81.7542 10.872 83.3755 10.744 85.1035 10.744C87.8555 10.744 90.1595 11.064 92.0155 11.704C93.8715 12.344 95.3542 13.2507 96.4635 14.424C97.5728 15.5973 98.3728 17.0053 98.8635 18.648C99.3542 20.2693 99.5995 22.0613 99.5995 24.024V43ZM79.9515 43.736C76.8155 43.736 74.4368 42.9467 72.8155 41.368C71.1942 39.7893 70.3835 37.5387 70.3835 34.616V33.752C70.3835 30.6587 71.3328 28.376 73.2315 26.904C75.1515 25.4107 78.1915 24.3973 82.3515 23.864L90.7995 22.744L91.3755 28.632L83.8875 29.72C82.3728 29.912 81.3062 30.264 80.6875 30.776C80.0688 31.288 79.7595 32.0453 79.7595 33.048V33.272C79.7595 34.232 80.0688 35 80.6875 35.576C81.3062 36.1307 82.2982 36.408 83.6635 36.408C84.8582 36.408 85.8822 36.2267 86.7355 35.864C87.6102 35.5013 88.3248 35.032 88.8795 34.456C89.4342 33.8587 89.8502 33.1973 90.1275 32.472L91.5035 36.44H89.9035C89.5622 37.8053 89.0288 39.0427 88.3035 40.152C87.5995 41.2613 86.5755 42.136 85.2315 42.776C83.8875 43.416 82.1275 43.736 79.9515 43.736Z" fill="black"/>
<path d="M115.526 43H105.734V0.727997H115.526V43Z" fill="black"/>
<path d="M136.316 43.896C131.239 43.896 127.399 42.6373 124.797 40.12C122.215 37.5813 120.925 34.0187 120.925 29.432V25.304C120.925 20.6533 122.226 17.048 124.829 14.488C127.431 11.9067 131.26 10.616 136.316 10.616C141.372 10.616 145.191 11.9067 147.773 14.488C150.375 17.048 151.676 20.6533 151.676 25.304V29.432C151.676 34.0187 150.386 37.5813 147.805 40.12C145.223 42.6373 141.394 43.896 136.316 43.896ZM136.316 36.184C138.13 36.184 139.506 35.64 140.445 34.552C141.405 33.4427 141.885 31.8747 141.885 29.848V24.888C141.885 22.7547 141.405 21.1333 140.445 20.024C139.506 18.9147 138.13 18.36 136.316 18.36C134.503 18.36 133.116 18.9147 132.156 20.024C131.218 21.1333 130.749 22.7547 130.749 24.888V29.848C130.749 31.8747 131.218 33.4427 132.156 34.552C133.116 35.64 134.503 36.184 136.316 36.184Z" fill="black"/>
<path d="M171.059 33.208C166.003 33.208 162.206 32.2693 159.667 30.392C157.128 28.5147 155.859 25.88 155.859 22.488V22.072C155.859 19.768 156.371 17.8267 157.395 16.248C158.44 14.648 160.04 13.4107 162.195 12.536C164.35 11.6613 167.112 11.1387 170.483 10.968L187.283 10.2V17.112L178.931 16.888V17.208C180.36 17.4427 181.534 17.848 182.451 18.424C183.39 18.9787 184.083 19.7147 184.531 20.632C185 21.528 185.235 22.6373 185.235 23.96V24.184C185.235 27.1067 184.072 29.3467 181.747 30.904C179.443 32.44 175.88 33.208 171.059 33.208ZM170.579 48.088H171.539C173.075 48.088 174.312 47.992 175.251 47.8C176.211 47.608 176.915 47.32 177.363 46.936C177.811 46.552 178.035 46.072 178.035 45.496V45.432C178.035 44.6853 177.715 44.152 177.075 43.832C176.456 43.512 175.518 43.2987 174.259 43.192L164.979 42.264L167.123 42.136C166.483 42.2427 165.928 42.424 165.459 42.68C165.011 42.936 164.648 43.256 164.371 43.64C164.115 44.024 163.987 44.4933 163.987 45.048V45.112C163.987 45.752 164.222 46.296 164.691 46.744C165.16 47.192 165.875 47.5227 166.835 47.736C167.816 47.9707 169.064 48.088 170.579 48.088ZM171.315 55.256H170.099C166.942 55.256 164.243 55 162.003 54.488C159.784 53.9973 158.099 53.208 156.947 52.12C155.795 51.032 155.219 49.592 155.219 47.8V47.672C155.219 46.456 155.486 45.432 156.019 44.6C156.552 43.768 157.32 43.1173 158.323 42.648C159.326 42.1787 160.499 41.8907 161.843 41.784V41.464C160.2 41.1653 158.931 40.6427 158.035 39.896C157.16 39.1493 156.723 38.104 156.723 36.76V36.728C156.723 35.768 156.936 34.9573 157.363 34.296C157.811 33.6347 158.462 33.1333 159.315 32.792C160.168 32.4293 161.214 32.216 162.451 32.152V31.096L169.683 32.92L167.571 32.888C166.824 32.888 166.291 32.984 165.971 33.176C165.672 33.368 165.523 33.656 165.523 34.04V34.072C165.523 34.5413 165.768 34.8827 166.259 35.096C166.771 35.288 167.592 35.448 168.723 35.576L176.179 36.44C179.806 36.8667 182.504 37.7627 184.275 39.128C186.046 40.4933 186.931 42.6053 186.931 45.464V45.656C186.931 47.832 186.312 49.624 185.075 51.032C183.859 52.4613 182.088 53.5173 179.763 54.2C177.459 54.904 174.643 55.256 171.315 55.256ZM170.739 26.616C171.998 26.616 173.032 26.456 173.843 26.136C174.675 25.7947 175.294 25.304 175.699 24.664C176.126 24.0027 176.339 23.2133 176.339 22.296V22.008C176.339 21.0907 176.136 20.312 175.731 19.672C175.326 19.032 174.707 18.552 173.875 18.232C173.064 17.8907 172.019 17.72 170.739 17.72H170.707C169.406 17.72 168.339 17.8907 167.507 18.232C166.675 18.5733 166.056 19.064 165.651 19.704C165.267 20.344 165.075 21.1227 165.075 22.04V22.296C165.075 23.2133 165.278 24.0027 165.683 24.664C166.11 25.304 166.739 25.7947 167.571 26.136C168.403 26.456 169.459 26.616 170.739 26.616Z" fill="black"/>
<path d="M192.859 32.568H201.883C201.968 33.08 202.043 33.6667 202.107 34.328C202.171 34.968 202.202 35.6613 202.202 36.408C202.202 39.16 201.786 41.6987 200.954 44.024C200.122 46.3707 198.757 48.6107 196.859 50.744L190.139 49.176C191.099 47.4053 191.824 45.5173 192.314 43.512C192.826 41.5067 193.083 39.2667 193.083 36.792C193.083 36.0453 193.061 35.3413 193.018 34.68C192.997 34.0187 192.944 33.3147 192.859 32.568ZM197.37 23.768C195.536 23.768 194.181 23.2987 193.307 22.36C192.453 21.4213 192.027 20.1093 192.027 18.424V18.072C192.027 16.408 192.453 15.096 193.307 14.136C194.181 13.176 195.536 12.696 197.37 12.696C199.162 12.696 200.496 13.176 201.37 14.136C202.245 15.096 202.682 16.408 202.682 18.072V18.424C202.682 20.1093 202.245 21.4213 201.37 22.36C200.496 23.2987 199.162 23.768 197.37 23.768Z" fill="black"/>
</svg>
