<svg width="90" height="90" viewBox="0 0 90 90" fill="none" xmlns="http://www.w3.org/2000/svg">
<path d="M90 45C90 69.8528 69.8528 90 45 90C20.1472 90 0 69.8528 0 45C0 20.1472 20.1472 0 45 0C69.8528 0 90 20.1472 90 45Z" fill="black"/>
<path d="M54.96 64H44.688L43.888 56.288C43.76 54.9227 43.4933 53.8133 43.088 52.96C42.6827 52.0853 42.064 51.4453 41.232 51.04C40.4 50.6133 39.2907 50.4 37.904 50.4L28.656 50.368V42.72L38.288 42.688C40.3787 42.688 41.8827 42.2293 42.8 41.312C43.7173 40.3947 44.176 39.0187 44.176 37.184V36.544C44.176 34.7307 43.7173 33.376 42.8 32.48C41.904 31.5627 40.3893 31.104 38.256 31.104H28.592V23.104H39.696C44.7093 23.104 48.368 24.0747 50.672 26.016C52.9973 27.9573 54.16 30.752 54.16 34.4V35.232C54.16 37.984 53.456 40.128 52.048 41.664C50.64 43.2 48.496 44.0747 45.616 44.288V45.696L43.568 44.32C46.0427 44.4907 47.9627 45.0027 49.328 45.856C50.6933 46.7093 51.696 47.904 52.336 49.44C52.9973 50.9547 53.4773 52.8427 53.776 55.104L54.96 64ZM31.504 64H21.712V23.104H31.44V45.472L31.504 49.184V64Z" fill="white"/>
<path d="M60.2335 53.568H69.2575C69.3428 54.08 69.4175 54.6667 69.4815 55.328C69.5455 55.968 69.5775 56.6613 69.5775 57.408C69.5775 60.16 69.1615 62.6987 68.3295 65.024C67.4975 67.3707 66.1322 69.6107 64.2335 71.744L57.5135 70.176C58.4735 68.4053 59.1988 66.5173 59.6895 64.512C60.2015 62.5067 60.4575 60.2667 60.4575 57.792C60.4575 57.0453 60.4362 56.3413 60.3935 55.68C60.3722 55.0187 60.3188 54.3147 60.2335 53.568ZM64.7455 44.768C62.9108 44.768 61.5562 44.2987 60.6815 43.36C59.8282 42.4213 59.4015 41.1093 59.4015 39.424V39.072C59.4015 37.408 59.8282 36.096 60.6815 35.136C61.5562 34.176 62.9108 33.696 64.7455 33.696C66.5375 33.696 67.8708 34.176 68.7455 35.136C69.6202 36.096 70.0575 37.408 70.0575 39.072V39.424C70.0575 41.1093 69.6202 42.4213 68.7455 43.36C67.8708 44.2987 66.5375 44.768 64.7455 44.768Z" fill="white"/>
</svg>
